# xmcd
#
# Track frame offsets:
# 150
# 10127
# 25992
# 42219
# 58918
# 79013
# 96676
# 114448
# 132828
# 146434
# 159212
# 174501
# 189969
# 199726
# 218360
#
# Disc length: 3111 seconds
#
# Revision: 0
# Processed by: cddbd v1.5.2PL0 Copyright (c) Steve Scherf et al.
# Submitted via: Audion 3.0.2 (http://www.panic.com/audion/)
#
DISCID=c20c250f
DTITLE=Radio Disney - Radio Disney
DYEAR=1900
DGENRE=
TTITLE0=Do you believe in magic
TTITLE1=Whats your name
TTITLE2=Pon de replay
TTITLE3=Fly
TTITLE4=Pop Princess
TTITLE5=Lonely
TTITLE6=Dance 4 U
TTITLE7=Cha Cha Slide
TTITLE8=Shake a Tail Feather
TTITLE9=Crazy Frog
TTITLE10=Skater Boy
TTITLE11=Almost
TTITLE12=Just the way I am
TTITLE13=Go FIgure
TTITLE14=Thats Good
EXTD=
EXTT0=
EXTT1=
EXTT2=
EXTT3=
EXTT4=
EXTT5=
EXTT6=
EXTT7=
EXTT8=
EXTT9=
EXTT10=
EXTT11=
EXTT12=
EXTT13=
EXTT14=
PLAYORDER=
